{"title":"Colombiana 2011 KORSUB HDRiP AC3 XViD - REBORN","uid":6728418,"size":1511708572,"categoryP":"video","categoryS":"movies","magnet":"?xt=urn:btih:ff17d9a77dabb5eae753d208c14e764d73133588&amp;dn=Colombiana+2011+KORSUB+HDRiP+AC3+XViD+-+REBORN&amp;tr=udp%3A%2F%2Ftracker.openbittorrent.com%3A80&amp;tr=udp%3A%2F%2Fopen.demonii.com%3A1337&amp;tr=udp%3A%2F%2Ftracker.coppersurfer.tk%3A6969&amp;tr=udp%3A%2F%2Fexodus.desync.com%3A6969","seeders":0,"leechers":0,"uploader":"TvTeam","files":6,"time":1318026007,"description":". \n  &lt;a href=&quot;\nhttp://www.torrenting.com/&quot; rel=&quot;nofollow&quot; target=&quot;_NEW&quot;&gt;\nhttp://www.torrenting.com/&lt;/a&gt;        :     Greatest Movie Tracker on The Net!!!\n &lt;a href=&quot;\nhttp://www.Torrenting.com&quot; rel=&quot;nofollow&quot; target=&quot;_NEW&quot;&gt;\nhttp://www.Torrenting.com&lt;/a&gt;          :     Once &amp; For all ;)\n\n\n               www . Torrenting . Com \n\n(((((((((((((= Enjoy No RAR releases =))))))))))))))))))))\n\n\n...................................NFO:....................................\n\n.Colombiana 2011 KORSUB HDRiP AC3 XViD - REBORN\n\nsource:\nColombiana.2011.KORSUB.720p.HDRip.x264.AC3-ZERO\n &lt;a href=&quot;\nhttp://www.imdb.com/title/tt1657507/&quot; rel=&quot;nofollow&quot; target=&quot;_NEW&quot;&gt;\nhttp://www.imdb.com/title/tt1657507/&lt;/a&gt;\n\nVideo\nID                               : 0\nFormat                           : MPEG-4 Visual\nFormat profile                   : Advanced Simple@L5\nFormat settings, BVOP            : 2\nFormat settings, QPel            : No\nFormat settings, GMC             : No warppoints\nFormat settings, Matrix          : Default (MPEG)\nMuxing mode                      : Packed bitstream\nCodec ID                         : XVID\nCodec ID/Hint                    : XviD\nDuration                         : 1h 47mn\nBit rate                         : 1 643 Kbps\nWidth                            : 720 pixels\nHeight                           : 304 pixels\nDisplay aspect ratio             : 2.35:1\nFrame rate                       : 29.970 fps\nColor space                      : YUV\nChroma subsampling               : 4:2:0\nBit depth                        : 8 bits\nScan type                        : Progressive\nCompression mode                 : Lossy\nBits/(Pixel*Frame)               : 0.250\nStream size                      : 1.24 GiB (89%)\nWriting library                  : XviD 64\n\nAudio\nID                               : 1\nFormat                           : AC-3\nFormat/Info                      : Audio Coding 3\nMode extension                   : CM (complete main)\nCodec ID                         : 2000\nDuration                         : 1h 47mn\nBit rate mode                    : Constant\nBit rate                         : 192 Kbps\nChannel(s)                       : 2 channels\nChannel positions                : Front: L R\nSampling rate                    : 48.0 KHz\nBit depth                        : 16 bits\nCompression mode                 : Lossy\nStream size                      : 148 MiB (10%)\nAlignment                        : Aligned on interleaves\nInterleave, duration             : 33 ms (1.00 video frame)\nInterleave, preload duration     : 512 ms\n\n\nWORKDONE:\n\nFew video tweaks on the colour,brightness and sharpness...but only\na small amount.\nCropped odd small border at the bottom and resized.\nThen remuxed original audio track.\n\n[IMG]http://i.imgur.com/lV0XR.png[/IMG]\n[IMG]http://i.imgur.com/FgwlU.png[/IMG]\n[IMG]http://i.imgur.com/Jj6lH.png[/IMG]\n[IMG]http://i.imgur.com/kU9l1.png[/IMG]","torrent":{"xt":"urn:btih:ff17d9a77dabb5eae753d208c14e764d73133588","amp;dn":"Colombiana+2011+KORSUB+HDRiP+AC3+XViD+-+REBORN","amp;tr":["udp%3A%2F%2Ftracker.openbittorrent.com%3A80","udp%3A%2F%2Fopen.demonii.com%3A1337","udp%3A%2F%2Ftracker.coppersurfer.tk%3A6969","udp%3A%2F%2Fexodus.desync.com%3A6969"],"infoHash":"ff17d9a77dabb5eae753d208c14e764d73133588","infoHashBuffer":{"type":"Buffer","data":[255,23,217,167,125,171,181,234,231,83,210,8,193,78,118,77,115,19,53,136]},"announce":[],"urlList":[]}}